<?xml version="1.0" encoding="UTF-8" standalone="no"?>
<!DOCTYPE svg PUBLIC "-//W3C//DTD SVG 1.1//EN" "http://www.w3.org/Graphics/SVG/1.1/DTD/svg11.dtd">
<svg width="100%" height="100%" viewBox="0 0 2835 1701" version="1.1" xmlns="http://www.w3.org/2000/svg" xmlns:xlink="http://www.w3.org/1999/xlink" xml:space="preserve" xmlns:serif="http://www.serif.com/" style="fill-rule:evenodd;clip-rule:evenodd;">
    <g transform="matrix(1,0,0,1,18,18)">
        <path d="M8.504,0L22.677,0L22.677,8.504L29.622,8.504L29.622,14.457L26.079,14.457L26.079,21.543L29.622,21.543L29.622,28.63L38.409,28.63L38.409,21.543L41.953,21.543L41.953,14.457L38.409,14.457L38.409,8.504L45.354,8.504L45.354,0L62.362,0L62.362,8.504L79.37,8.504L79.37,0L96.378,0L96.378,8.504L113.386,8.504L113.386,0L130.394,0L130.394,8.504L147.402,8.504L147.402,0L164.409,0L164.409,8.504L181.417,8.504L181.417,0L198.425,0L198.425,8.504L215.433,8.504L215.433,0L232.441,0L232.441,8.504L249.449,8.504L249.449,0L266.457,0L266.457,8.504L283.465,8.504L283.465,0L300.472,0L300.472,8.504L317.48,8.504L317.48,0L334.488,0L334.488,8.504L351.496,8.504L351.496,0L368.504,0L368.504,8.504L385.512,8.504L385.512,0L402.52,0L402.52,8.504L419.528,8.504L419.528,0L436.535,0L436.535,8.504L453.543,8.504L453.543,0L470.551,0L470.551,8.504L487.559,8.504L487.559,0L504.567,0L504.567,8.504L521.575,8.504L521.575,0L538.583,0L538.583,8.504L545.528,8.504L545.528,14.457L541.984,14.457L541.984,21.543L545.528,21.543L545.528,28.63L554.315,28.63L554.315,21.543L557.858,21.543L557.858,14.457L554.315,14.457L554.315,8.504L561.26,8.504L561.26,0L575.433,0L575.433,22.677L583.937,22.677L583.937,28.772L573.449,28.772L573.449,39.26L583.937,39.26L583.937,45.354L575.433,45.354L575.433,62.362L583.937,62.362L583.937,79.37L575.433,79.37L575.433,96.378L583.937,96.378L583.937,113.386L575.433,113.386L575.433,130.394L583.937,130.394L583.937,147.402L575.433,147.402L575.433,164.409L583.937,164.409L583.937,181.417L575.433,181.417L575.433,198.425L583.937,198.425L583.937,215.433L575.433,215.433L575.433,232.441L583.937,232.441L583.937,249.449L575.433,249.449L575.433,266.457L583.937,266.457L583.937,283.465L575.433,283.465L575.433,300.472L583.937,300.472L583.937,317.48L575.433,317.48L575.433,334.488L583.937,334.488L583.937,351.496L575.433,351.496L575.433,368.504L583.937,368.504L583.937,385.512L575.433,385.512L575.433,402.52L583.937,402.52L583.937,419.528L575.433,419.528L575.433,436.535L583.937,436.535L583.937,453.543L575.433,453.543L575.433,470.551L583.937,470.551L583.937,487.559L575.433,487.559L575.433,504.567L583.937,504.567L583.937,521.575L575.433,521.575L575.433,538.583L583.937,538.583L583.937,544.677L573.449,544.677L573.449,555.165L583.937,555.165L583.937,561.26L575.433,561.26L575.433,583.937L561.26,583.937L561.26,575.433L554.315,575.433L554.315,569.48L557.858,569.48L557.858,562.394L554.315,562.394L554.315,555.307L545.528,555.307L545.528,562.394L541.984,562.394L541.984,569.48L545.528,569.48L545.528,575.433L538.583,575.433L538.583,583.937L521.575,583.937L521.575,575.433L504.567,575.433L504.567,583.937L487.559,583.937L487.559,575.433L470.551,575.433L470.551,583.937L453.543,583.937L453.543,575.433L436.535,575.433L436.535,583.937L419.528,583.937L419.528,575.433L402.52,575.433L402.52,583.937L385.512,583.937L385.512,575.433L368.504,575.433L368.504,583.937L351.496,583.937L351.496,575.433L334.488,575.433L334.488,583.937L317.48,583.937L317.48,575.433L300.472,575.433L300.472,583.937L283.465,583.937L283.465,575.433L266.457,575.433L266.457,583.937L249.449,583.937L249.449,575.433L232.441,575.433L232.441,583.937L215.433,583.937L215.433,575.433L198.425,575.433L198.425,583.937L181.417,583.937L181.417,575.433L164.409,575.433L164.409,583.937L147.402,583.937L147.402,575.433L130.394,575.433L130.394,583.937L113.386,583.937L113.386,575.433L96.378,575.433L96.378,583.937L79.37,583.937L79.37,575.433L62.362,575.433L62.362,583.937L45.354,583.937L45.354,575.433L38.409,575.433L38.409,569.48L41.953,569.48L41.953,562.394L38.409,562.394L38.409,555.307L29.622,555.307L29.622,562.394L26.079,562.394L26.079,569.48L29.622,569.48L29.622,575.433L22.677,575.433L22.677,583.937L8.504,583.937L8.504,561.26L0,561.26L0,555.165L10.488,555.165L10.488,544.677L0,544.677L0,538.583L8.504,538.583L8.504,521.575L0,521.575L0,504.567L8.504,504.567L8.504,487.559L0,487.559L0,470.551L8.504,470.551L8.504,453.543L0,453.543L0,436.535L8.504,436.535L8.504,419.528L0,419.528L0,402.52L8.504,402.52L8.504,385.512L0,385.512L0,368.504L8.504,368.504L8.504,351.496L0,351.496L0,334.488L8.504,334.488L8.504,317.48L0,317.48L0,300.472L8.504,300.472L8.504,283.465L0,283.465L0,266.457L8.504,266.457L8.504,249.449L0,249.449L0,232.441L8.504,232.441L8.504,215.433L0,215.433L0,198.425L8.504,198.425L8.504,181.417L0,181.417L0,164.409L8.504,164.409L8.504,147.402L0,147.402L0,130.394L8.504,130.394L8.504,113.386L0,113.386L0,96.378L8.504,96.378L8.504,79.37L0,79.37L0,62.362L8.504,62.362L8.504,45.354L0,45.354L0,39.26L10.488,39.26L10.488,28.772L0,28.772L0,22.677L8.504,22.677L8.504,0Z" style="fill:none;stroke:black;stroke-width:0.03px;"/>
    </g>
    <g transform="matrix(1,0,0,1,601.937,18)">
        <path d="M8.504,0L22.677,0L22.677,8.504L29.622,8.504L29.622,14.457L26.079,14.457L26.079,21.543L29.622,21.543L29.622,28.63L38.409,28.63L38.409,21.543L41.953,21.543L41.953,14.457L38.409,14.457L38.409,8.504L45.354,8.504L45.354,0L62.362,0L62.362,8.504L79.37,8.504L79.37,0L96.378,0L96.378,8.504L113.386,8.504L113.386,0L130.394,0L130.394,8.504L147.402,8.504L147.402,0L164.409,0L164.409,8.504L181.417,8.504L181.417,0L198.425,0L198.425,8.504L215.433,8.504L215.433,0L232.441,0L232.441,8.504L249.449,8.504L249.449,0L266.457,0L266.457,8.504L283.465,8.504L283.465,0L300.472,0L300.472,8.504L317.48,8.504L317.48,0L334.488,0L334.488,8.504L351.496,8.504L351.496,0L368.504,0L368.504,8.504L385.512,8.504L385.512,0L402.52,0L402.52,8.504L419.528,8.504L419.528,0L436.535,0L436.535,8.504L453.543,8.504L453.543,0L470.551,0L470.551,8.504L487.559,8.504L487.559,0L504.567,0L504.567,8.504L521.575,8.504L521.575,0L538.583,0L538.583,8.504L545.528,8.504L545.528,14.457L541.984,14.457L541.984,21.543L545.528,21.543L545.528,28.63L554.315,28.63L554.315,21.543L557.858,21.543L557.858,14.457L554.315,14.457L554.315,8.504L561.26,8.504L561.26,0L575.433,0L575.433,22.677L583.937,22.677L583.937,28.772L573.449,28.772L573.449,39.26L583.937,39.26L583.937,45.354L575.433,45.354L575.433,62.362L583.937,62.362L583.937,79.37L575.433,79.37L575.433,96.378L583.937,96.378L583.937,113.386L575.433,113.386L575.433,130.394L583.937,130.394L583.937,147.402L575.433,147.402L575.433,164.409L583.937,164.409L583.937,181.417L575.433,181.417L575.433,198.425L583.937,198.425L583.937,215.433L575.433,215.433L575.433,232.441L583.937,232.441L583.937,249.449L575.433,249.449L575.433,266.457L583.937,266.457L583.937,283.465L575.433,283.465L575.433,300.472L583.937,300.472L583.937,317.48L575.433,317.48L575.433,334.488L583.937,334.488L583.937,351.496L575.433,351.496L575.433,368.504L583.937,368.504L583.937,385.512L575.433,385.512L575.433,402.52L583.937,402.52L583.937,419.528L575.433,419.528L575.433,436.535L583.937,436.535L583.937,453.543L575.433,453.543L575.433,470.551L583.937,470.551L583.937,487.559L575.433,487.559L575.433,504.567L583.937,504.567L583.937,521.575L575.433,521.575L575.433,538.583L583.937,538.583L583.937,544.677L573.449,544.677L573.449,555.165L583.937,555.165L583.937,561.26L575.433,561.26L575.433,583.937L561.26,583.937L561.26,575.433L554.315,575.433L554.315,569.48L557.858,569.48L557.858,562.394L554.315,562.394L554.315,555.307L545.528,555.307L545.528,562.394L541.984,562.394L541.984,569.48L545.528,569.48L545.528,575.433L538.583,575.433L538.583,583.937L521.575,583.937L521.575,575.433L504.567,575.433L504.567,583.937L487.559,583.937L487.559,575.433L470.551,575.433L470.551,583.937L453.543,583.937L453.543,575.433L436.535,575.433L436.535,583.937L419.528,583.937L419.528,575.433L402.52,575.433L402.52,583.937L385.512,583.937L385.512,575.433L368.504,575.433L368.504,583.937L351.496,583.937L351.496,575.433L334.488,575.433L334.488,583.937L317.48,583.937L317.48,575.433L300.472,575.433L300.472,583.937L283.465,583.937L283.465,575.433L266.457,575.433L266.457,583.937L249.449,583.937L249.449,575.433L232.441,575.433L232.441,583.937L215.433,583.937L215.433,575.433L198.425,575.433L198.425,583.937L181.417,583.937L181.417,575.433L164.409,575.433L164.409,583.937L147.402,583.937L147.402,575.433L130.394,575.433L130.394,583.937L113.386,583.937L113.386,575.433L96.378,575.433L96.378,583.937L79.37,583.937L79.37,575.433L62.362,575.433L62.362,583.937L45.354,583.937L45.354,575.433L38.409,575.433L38.409,569.48L41.953,569.48L41.953,562.394L38.409,562.394L38.409,555.307L29.622,555.307L29.622,562.394L26.079,562.394L26.079,569.48L29.622,569.48L29.622,575.433L22.677,575.433L22.677,583.937L8.504,583.937L8.504,561.26L0,561.26L0,555.165L10.488,555.165L10.488,544.677L0,544.677L0,538.583L8.504,538.583L8.504,521.575L0,521.575L0,504.567L8.504,504.567L8.504,487.559L0,487.559L0,470.551L8.504,470.551L8.504,453.543L0,453.543L0,436.535L8.504,436.535L8.504,419.528L0,419.528L0,402.52L8.504,402.52L8.504,385.512L0,385.512L0,368.504L8.504,368.504L8.504,351.496L0,351.496L0,334.488L8.504,334.488L8.504,317.48L0,317.48L0,300.472L8.504,300.472L8.504,283.465L0,283.465L0,266.457L8.504,266.457L8.504,249.449L0,249.449L0,232.441L8.504,232.441L8.504,215.433L0,215.433L0,198.425L8.504,198.425L8.504,181.417L0,181.417L0,164.409L8.504,164.409L8.504,147.402L0,147.402L0,130.394L8.504,130.394L8.504,113.386L0,113.386L0,96.378L8.504,96.378L8.504,79.37L0,79.37L0,62.362L8.504,62.362L8.504,45.354L0,45.354L0,39.26L10.488,39.26L10.488,28.772L0,28.772L0,22.677L8.504,22.677L8.504,0Z" style="fill:none;stroke:black;stroke-width:0.03px;"/>
    </g>
    <g transform="matrix(1,0,0,1,1185.87,18)">
        <path d="M0,8.504L28.346,8.504L28.346,0L37.276,0L37.276,10.488L47.764,10.488L47.764,0L56.693,0L56.693,8.504L73.701,8.504L73.701,0L90.709,0L90.709,8.504L107.717,8.504L107.717,0L124.724,0L124.724,8.504L141.732,8.504L141.732,0L158.74,0L158.74,8.504L175.748,8.504L175.748,0L192.756,0L192.756,8.504L209.764,8.504L209.764,0L226.772,0L226.772,8.504L243.78,8.504L243.78,0L252.709,0L252.709,10.488L263.197,10.488L263.197,0L272.126,0L272.126,8.504L300.472,8.504L300.472,22.677L291.969,22.677L291.969,29.622L286.016,29.622L286.016,26.079L278.929,26.079L278.929,29.622L271.843,29.622L271.843,38.409L278.929,38.409L278.929,41.953L286.016,41.953L286.016,38.409L291.969,38.409L291.969,45.354L300.472,45.354L300.472,62.362L291.969,62.362L291.969,79.37L300.472,79.37L300.472,96.378L291.969,96.378L291.969,113.386L300.472,113.386L300.472,130.394L291.969,130.394L291.969,147.402L300.472,147.402L300.472,164.409L291.969,164.409L291.969,181.417L300.472,181.417L300.472,198.425L291.969,198.425L291.969,215.433L300.472,215.433L300.472,232.441L291.969,232.441L291.969,249.449L300.472,249.449L300.472,266.457L291.969,266.457L291.969,283.465L300.472,283.465L300.472,300.472L291.969,300.472L291.969,317.48L300.472,317.48L300.472,334.488L291.969,334.488L291.969,351.496L300.472,351.496L300.472,368.504L291.969,368.504L291.969,385.512L300.472,385.512L300.472,402.52L291.969,402.52L291.969,419.528L300.472,419.528L300.472,436.535L291.969,436.535L291.969,453.543L300.472,453.543L300.472,470.551L291.969,470.551L291.969,487.559L300.472,487.559L300.472,504.567L291.969,504.567L291.969,521.575L300.472,521.575L300.472,538.583L291.969,538.583L291.969,545.528L286.016,545.528L286.016,541.984L278.929,541.984L278.929,545.528L271.843,545.528L271.843,554.315L278.929,554.315L278.929,557.858L286.016,557.858L286.016,554.315L291.969,554.315L291.969,561.26L300.472,561.26L300.472,575.433L272.126,575.433L272.126,583.937L263.197,583.937L263.197,573.449L252.709,573.449L252.709,583.937L243.78,583.937L243.78,575.433L226.772,575.433L226.772,583.937L209.764,583.937L209.764,575.433L192.756,575.433L192.756,583.937L175.748,583.937L175.748,575.433L158.74,575.433L158.74,583.937L141.732,583.937L141.732,575.433L124.724,575.433L124.724,583.937L107.717,583.937L107.717,575.433L90.709,575.433L90.709,583.937L73.701,583.937L73.701,575.433L56.693,575.433L56.693,583.937L47.764,583.937L47.764,573.449L37.276,573.449L37.276,583.937L28.346,583.937L28.346,575.433L0,575.433L0,561.26L8.504,561.26L8.504,554.315L14.457,554.315L14.457,557.858L21.543,557.858L21.543,554.315L28.63,554.315L28.63,545.528L21.543,545.528L21.543,541.984L14.457,541.984L14.457,545.528L8.504,545.528L8.504,538.583L0,538.583L0,521.575L8.504,521.575L8.504,504.567L0,504.567L0,487.559L8.504,487.559L8.504,470.551L0,470.551L0,453.543L8.504,453.543L8.504,436.535L0,436.535L0,419.528L8.504,419.528L8.504,402.52L0,402.52L0,385.512L8.504,385.512L8.504,368.504L0,368.504L0,351.496L8.504,351.496L8.504,334.488L0,334.488L0,317.48L8.504,317.48L8.504,300.472L0,300.472L0,283.465L8.504,283.465L8.504,266.457L0,266.457L0,249.449L8.504,249.449L8.504,232.441L0,232.441L0,215.433L8.504,215.433L8.504,198.425L0,198.425L0,181.417L8.504,181.417L8.504,164.409L0,164.409L0,147.402L8.504,147.402L8.504,130.394L0,130.394L0,113.386L8.504,113.386L8.504,96.378L0,96.378L0,79.37L8.504,79.37L8.504,62.362L0,62.362L0,45.354L8.504,45.354L8.504,38.409L14.457,38.409L14.457,41.953L21.543,41.953L21.543,38.409L28.63,38.409L28.63,29.622L21.543,29.622L21.543,26.079L14.457,26.079L14.457,29.622L8.504,29.622L8.504,22.677L0,22.677L0,8.504Z" style="fill:none;stroke:black;stroke-width:0.03px;"/>
    </g>
    <g transform="matrix(1,0,0,1,1185.87,601.937)">
        <path d="M0,8.504L28.346,8.504L28.346,0L37.276,0L37.276,10.488L47.764,10.488L47.764,0L56.693,0L56.693,8.504L73.701,8.504L73.701,0L90.709,0L90.709,8.504L107.717,8.504L107.717,0L124.724,0L124.724,8.504L141.732,8.504L141.732,0L158.74,0L158.74,8.504L175.748,8.504L175.748,0L192.756,0L192.756,8.504L209.764,8.504L209.764,0L226.772,0L226.772,8.504L243.78,8.504L243.78,0L252.709,0L252.709,10.488L263.197,10.488L263.197,0L272.126,0L272.126,8.504L300.472,8.504L300.472,22.677L291.969,22.677L291.969,29.622L286.016,29.622L286.016,26.079L278.929,26.079L278.929,29.622L271.843,29.622L271.843,38.409L278.929,38.409L278.929,41.953L286.016,41.953L286.016,38.409L291.969,38.409L291.969,45.354L300.472,45.354L300.472,62.362L291.969,62.362L291.969,79.37L300.472,79.37L300.472,96.378L291.969,96.378L291.969,113.386L300.472,113.386L300.472,130.394L291.969,130.394L291.969,147.402L300.472,147.402L300.472,164.409L291.969,164.409L291.969,181.417L300.472,181.417L300.472,198.425L291.969,198.425L291.969,215.433L300.472,215.433L300.472,232.441L291.969,232.441L291.969,249.449L300.472,249.449L300.472,266.457L291.969,266.457L291.969,283.465L300.472,283.465L300.472,300.472L291.969,300.472L291.969,317.48L300.472,317.48L300.472,334.488L291.969,334.488L291.969,351.496L300.472,351.496L300.472,368.504L291.969,368.504L291.969,385.512L300.472,385.512L300.472,402.52L291.969,402.52L291.969,419.528L300.472,419.528L300.472,436.535L291.969,436.535L291.969,453.543L300.472,453.543L300.472,470.551L291.969,470.551L291.969,487.559L300.472,487.559L300.472,504.567L291.969,504.567L291.969,521.575L300.472,521.575L300.472,538.583L291.969,538.583L291.969,545.528L286.016,545.528L286.016,541.984L278.929,541.984L278.929,545.528L271.843,545.528L271.843,554.315L278.929,554.315L278.929,557.858L286.016,557.858L286.016,554.315L291.969,554.315L291.969,561.26L300.472,561.26L300.472,575.433L272.126,575.433L272.126,583.937L263.197,583.937L263.197,573.449L252.709,573.449L252.709,583.937L243.78,583.937L243.78,575.433L226.772,575.433L226.772,583.937L209.764,583.937L209.764,575.433L192.756,575.433L192.756,583.937L175.748,583.937L175.748,575.433L158.74,575.433L158.74,583.937L141.732,583.937L141.732,575.433L124.724,575.433L124.724,583.937L107.717,583.937L107.717,575.433L90.709,575.433L90.709,583.937L73.701,583.937L73.701,575.433L56.693,575.433L56.693,583.937L47.764,583.937L47.764,573.449L37.276,573.449L37.276,583.937L28.346,583.937L28.346,575.433L0,575.433L0,561.26L8.504,561.26L8.504,554.315L14.457,554.315L14.457,557.858L21.543,557.858L21.543,554.315L28.63,554.315L28.63,545.528L21.543,545.528L21.543,541.984L14.457,541.984L14.457,545.528L8.504,545.528L8.504,538.583L0,538.583L0,521.575L8.504,521.575L8.504,504.567L0,504.567L0,487.559L8.504,487.559L8.504,470.551L0,470.551L0,453.543L8.504,453.543L8.504,436.535L0,436.535L0,419.528L8.504,419.528L8.504,402.52L0,402.52L0,385.512L8.504,385.512L8.504,368.504L0,368.504L0,351.496L8.504,351.496L8.504,334.488L0,334.488L0,317.48L8.504,317.48L8.504,300.472L0,300.472L0,283.465L8.504,283.465L8.504,266.457L0,266.457L0,249.449L8.504,249.449L8.504,232.441L0,232.441L0,215.433L8.504,215.433L8.504,198.425L0,198.425L0,181.417L8.504,181.417L8.504,164.409L0,164.409L0,147.402L8.504,147.402L8.504,130.394L0,130.394L0,113.386L8.504,113.386L8.504,96.378L0,96.378L0,79.37L8.504,79.37L8.504,62.362L0,62.362L0,45.354L8.504,45.354L8.504,38.409L14.457,38.409L14.457,41.953L21.543,41.953L21.543,38.409L28.63,38.409L28.63,29.622L21.543,29.622L21.543,26.079L14.457,26.079L14.457,29.622L8.504,29.622L8.504,22.677L0,22.677L0,8.504Z" style="fill:none;stroke:black;stroke-width:0.03px;"/>
    </g>
    <g transform="matrix(1,0,0,1,18,601.937)">
        <path d="M0,8.504L22.677,8.504L22.677,0L28.772,0L28.772,10.488L39.26,10.488L39.26,0L45.354,0L45.354,8.504L62.362,8.504L62.362,0L79.37,0L79.37,8.504L96.378,8.504L96.378,0L113.386,0L113.386,8.504L130.394,8.504L130.394,0L147.402,0L147.402,8.504L164.409,8.504L164.409,0L181.417,0L181.417,8.504L198.425,8.504L198.425,0L215.433,0L215.433,8.504L232.441,8.504L232.441,0L249.449,0L249.449,8.504L266.457,8.504L266.457,0L283.465,0L283.465,8.504L300.472,8.504L300.472,0L317.48,0L317.48,8.504L334.488,8.504L334.488,0L351.496,0L351.496,8.504L368.504,8.504L368.504,0L385.512,0L385.512,8.504L402.52,8.504L402.52,0L419.528,0L419.528,8.504L436.535,8.504L436.535,0L453.543,0L453.543,8.504L470.551,8.504L470.551,0L487.559,0L487.559,8.504L504.567,8.504L504.567,0L521.575,0L521.575,8.504L538.583,8.504L538.583,0L544.677,0L544.677,10.488L555.165,10.488L555.165,0L561.26,0L561.26,8.504L583.937,8.504L583.937,28.346L575.433,28.346L575.433,38.126L569.48,38.126L569.48,34.583L562.394,34.583L562.394,38.126L555.307,38.126L555.307,46.913L562.394,46.913L562.394,50.457L569.48,50.457L569.48,46.913L575.433,46.913L575.433,56.693L583.937,56.693L583.937,73.701L575.433,73.701L575.433,90.709L583.937,90.709L583.937,107.717L575.433,107.717L575.433,124.724L583.937,124.724L583.937,141.732L575.433,141.732L575.433,158.74L583.937,158.74L583.937,175.748L575.433,175.748L575.433,192.756L583.937,192.756L583.937,209.764L575.433,209.764L575.433,226.772L583.937,226.772L583.937,243.78L575.433,243.78L575.433,253.559L569.48,253.559L569.48,250.016L562.394,250.016L562.394,253.559L555.307,253.559L555.307,262.346L562.394,262.346L562.394,265.89L569.48,265.89L569.48,262.346L575.433,262.346L575.433,272.126L583.937,272.126L583.937,291.969L561.26,291.969L561.26,300.472L555.165,300.472L555.165,289.984L544.677,289.984L544.677,300.472L538.583,300.472L538.583,291.969L521.575,291.969L521.575,300.472L504.567,300.472L504.567,291.969L487.559,291.969L487.559,300.472L470.551,300.472L470.551,291.969L453.543,291.969L453.543,300.472L436.535,300.472L436.535,291.969L419.528,291.969L419.528,300.472L402.52,300.472L402.52,291.969L385.512,291.969L385.512,300.472L368.504,300.472L368.504,291.969L351.496,291.969L351.496,300.472L334.488,300.472L334.488,291.969L317.48,291.969L317.48,300.472L300.472,300.472L300.472,291.969L283.465,291.969L283.465,300.472L266.457,300.472L266.457,291.969L249.449,291.969L249.449,300.472L232.441,300.472L232.441,291.969L215.433,291.969L215.433,300.472L198.425,300.472L198.425,291.969L181.417,291.969L181.417,300.472L164.409,300.472L164.409,291.969L147.402,291.969L147.402,300.472L130.394,300.472L130.394,291.969L113.386,291.969L113.386,300.472L96.378,300.472L96.378,291.969L79.37,291.969L79.37,300.472L62.362,300.472L62.362,291.969L45.354,291.969L45.354,300.472L39.26,300.472L39.26,289.984L28.772,289.984L28.772,300.472L22.677,300.472L22.677,291.969L0,291.969L0,272.126L8.504,272.126L8.504,262.346L14.457,262.346L14.457,265.89L21.543,265.89L21.543,262.346L28.63,262.346L28.63,253.559L21.543,253.559L21.543,250.016L14.457,250.016L14.457,253.559L8.504,253.559L8.504,243.78L0,243.78L0,226.772L8.504,226.772L8.504,209.764L0,209.764L0,192.756L8.504,192.756L8.504,175.748L0,175.748L0,158.74L8.504,158.74L8.504,141.732L0,141.732L0,124.724L8.504,124.724L8.504,107.717L0,107.717L0,90.709L8.504,90.709L8.504,73.701L0,73.701L0,56.693L8.504,56.693L8.504,46.913L14.457,46.913L14.457,50.457L21.543,50.457L21.543,46.913L28.63,46.913L28.63,38.126L21.543,38.126L21.543,34.583L14.457,34.583L14.457,38.126L8.504,38.126L8.504,28.346L0,28.346L0,8.504Z" style="fill:none;stroke:black;stroke-width:0.03px;"/>
    </g>
    <g transform="matrix(0.0219727,0,0,0.0219727,-10.2568,616.333)">
        <g transform="matrix(1,7.65714e-16,7.65714e-16,-1,13287.8,6837.41)">
            <path d="M424,93.6C447.466,93.6 470.133,95.334 492,98.801C513.866,102.267 531.2,105.867 544,109.601L544,8.001C529.6,1.067 508.4,-4.666 480.4,-9.2C452.4,-13.734 427.2,-16 404.8,-16C235.2,-16 150.4,73.334 150.4,252L150.4,773.599L24.8,773.599L24.8,837.599L150.4,892.799L206.4,1080L283.2,1080L283.2,876.799L537.6,876.799L537.6,773.599L283.2,773.599L283.2,257.6C283.2,204.8 295.733,164.266 320.8,136C345.866,107.733 380.266,93.6 424,93.6L424,93.6Z" style="fill-rule:nonzero;"/>
        </g>
        <g transform="matrix(1,7.65714e-16,7.65714e-16,-1,13866.2,6837.41)">
            <path d="M897.599,439.2C897.599,296.266 861.6,184.665 789.6,104.399C717.6,24.133 618.134,-16.001 491.2,-16.001C412.8,-16.001 343.201,2.399 282.401,39.199C221.601,75.999 174.667,128.799 141.601,197.599C108.534,266.399 92.001,346.933 92.001,439.199C92.001,582.132 127.734,693.466 199.201,773.199C270.667,852.933 369.867,892.799 496.8,892.799C619.467,892.799 716.933,851.999 789.199,770.399C861.466,688.799 897.599,578.4 897.599,439.2ZM229.601,439.199C229.601,327.199 252.001,241.865 296.801,183.199C341.601,124.533 407.467,95.199 494.4,95.199C581.334,95.199 647.334,124.399 692.4,182.799C737.467,241.199 760,326.665 760,439.199C760,550.665 737.467,635.331 692.4,693.198C647.334,751.064 580.8,779.998 492.8,779.998C405.867,779.998 340.267,751.464 296.001,694.398C251.734,637.331 229.601,552.265 229.601,439.199Z" style="fill-rule:nonzero;"/>
        </g>
        <g transform="matrix(1,7.65714e-16,7.65714e-16,-1,14855.8,6837.41)">
            <path d="M548.8,-16C491.733,-16 439.599,-5.467 392.399,15.599C345.199,36.666 305.599,69.066 273.599,112.799L263.999,112.799C270.399,61.599 273.599,13.066 273.599,-32.801L273.599,-393.6L140.799,-393.6L140.799,876.798L248.799,876.798L267.199,756.799L273.599,756.799C307.733,804.799 347.466,839.465 392.8,860.798C438.133,882.132 490.133,892.798 548.8,892.798C665.066,892.798 754.799,853.065 817.999,773.599C881.199,694.132 912.799,582.666 912.799,439.2C912.799,295.2 880.666,183.333 816.399,103.6C752.133,23.866 662.933,-16 548.8,-16ZM529.599,779.999C439.999,779.999 375.199,755.198 335.199,705.598C295.199,655.998 274.665,577.064 273.599,468.798L273.599,439.198C273.599,315.998 294.133,227.865 335.199,174.798C376.265,121.732 442.132,95.198 532.798,95.198C608.531,95.198 667.865,125.865 710.799,187.198C753.732,248.532 775.199,333.065 775.199,440.799C775.199,550.132 753.732,633.999 710.799,692.399C667.865,750.799 607.465,779.999 529.599,779.999Z" style="fill-rule:nonzero;"/>
        </g>
    </g>
    <g transform="matrix(1,0,0,1,601.937,601.937)">
        <path d="M0,8.504L22.677,8.504L22.677,0L28.772,0L28.772,10.488L39.26,10.488L39.26,0L45.354,0L45.354,8.504L62.362,8.504L62.362,0L79.37,0L79.37,8.504L96.378,8.504L96.378,0L113.386,0L113.386,8.504L130.394,8.504L130.394,0L147.402,0L147.402,8.504L164.409,8.504L164.409,0L181.417,0L181.417,8.504L198.425,8.504L198.425,0L215.433,0L215.433,8.504L232.441,8.504L232.441,0L249.449,0L249.449,8.504L266.457,8.504L266.457,0L283.465,0L283.465,8.504L300.472,8.504L300.472,0L317.48,0L317.48,8.504L334.488,8.504L334.488,0L351.496,0L351.496,8.504L368.504,8.504L368.504,0L385.512,0L385.512,8.504L402.52,8.504L402.52,0L419.528,0L419.528,8.504L436.535,8.504L436.535,0L453.543,0L453.543,8.504L470.551,8.504L470.551,0L487.559,0L487.559,8.504L504.567,8.504L504.567,0L521.575,0L521.575,8.504L538.583,8.504L538.583,0L544.677,0L544.677,10.488L555.165,10.488L555.165,0L561.26,0L561.26,8.504L583.937,8.504L583.937,28.346L575.433,28.346L575.433,38.126L569.48,38.126L569.48,34.583L562.394,34.583L562.394,38.126L555.307,38.126L555.307,46.913L562.394,46.913L562.394,50.457L569.48,50.457L569.48,46.913L575.433,46.913L575.433,56.693L583.937,56.693L583.937,73.701L575.433,73.701L575.433,90.709L583.937,90.709L583.937,107.717L575.433,107.717L575.433,124.724L583.937,124.724L583.937,141.732L575.433,141.732L575.433,158.74L583.937,158.74L583.937,175.748L575.433,175.748L575.433,192.756L583.937,192.756L583.937,209.764L575.433,209.764L575.433,226.772L583.937,226.772L583.937,243.78L575.433,243.78L575.433,253.559L569.48,253.559L569.48,250.016L562.394,250.016L562.394,253.559L555.307,253.559L555.307,262.346L562.394,262.346L562.394,265.89L569.48,265.89L569.48,262.346L575.433,262.346L575.433,272.126L583.937,272.126L583.937,291.969L561.26,291.969L561.26,300.472L555.165,300.472L555.165,289.984L544.677,289.984L544.677,300.472L538.583,300.472L538.583,291.969L521.575,291.969L521.575,300.472L504.567,300.472L504.567,291.969L487.559,291.969L487.559,300.472L470.551,300.472L470.551,291.969L453.543,291.969L453.543,300.472L436.535,300.472L436.535,291.969L419.528,291.969L419.528,300.472L402.52,300.472L402.52,291.969L385.512,291.969L385.512,300.472L368.504,300.472L368.504,291.969L351.496,291.969L351.496,300.472L334.488,300.472L334.488,291.969L317.48,291.969L317.48,300.472L300.472,300.472L300.472,291.969L283.465,291.969L283.465,300.472L266.457,300.472L266.457,291.969L249.449,291.969L249.449,300.472L232.441,300.472L232.441,291.969L215.433,291.969L215.433,300.472L198.425,300.472L198.425,291.969L181.417,291.969L181.417,300.472L164.409,300.472L164.409,291.969L147.402,291.969L147.402,300.472L130.394,300.472L130.394,291.969L113.386,291.969L113.386,300.472L96.378,300.472L96.378,291.969L79.37,291.969L79.37,300.472L62.362,300.472L62.362,291.969L45.354,291.969L45.354,300.472L39.26,300.472L39.26,289.984L28.772,289.984L28.772,300.472L22.677,300.472L22.677,291.969L0,291.969L0,272.126L8.504,272.126L8.504,262.346L14.457,262.346L14.457,265.89L21.543,265.89L21.543,262.346L28.63,262.346L28.63,253.559L21.543,253.559L21.543,250.016L14.457,250.016L14.457,253.559L8.504,253.559L8.504,243.78L0,243.78L0,226.772L8.504,226.772L8.504,209.764L0,209.764L0,192.756L8.504,192.756L8.504,175.748L0,175.748L0,158.74L8.504,158.74L8.504,141.732L0,141.732L0,124.724L8.504,124.724L8.504,107.717L0,107.717L0,90.709L8.504,90.709L8.504,73.701L0,73.701L0,56.693L8.504,56.693L8.504,46.913L14.457,46.913L14.457,50.457L21.543,50.457L21.543,46.913L28.63,46.913L28.63,38.126L21.543,38.126L21.543,34.583L14.457,34.583L14.457,38.126L8.504,38.126L8.504,28.346L0,28.346L0,8.504Z" style="fill:none;stroke:black;stroke-width:0.03px;"/>
    </g>
    <path d="M104.594,98.17C104.594,82.525 117.296,69.823 132.94,69.823C148.585,69.823 161.287,82.525 161.287,98.17L161.287,523.367C161.287,539.012 148.585,551.713 132.94,551.713C117.295,551.713 104.594,539.012 104.594,523.367L104.594,98.17Z" style="fill:rgb(235,235,235);"/>
    <path d="M458.661,97.37C459.085,82.094 471.619,69.823 486.996,69.823C502.374,69.823 514.907,82.094 515.331,97.37L515.343,97.37L515.343,522.567L515.331,522.567C515.339,522.833 515.343,523.099 515.343,523.367C515.343,539.012 502.641,551.713 486.996,551.713C471.351,551.713 458.65,539.012 458.65,523.367C458.65,523.099 458.653,522.833 458.661,522.567L458.65,522.567L458.65,97.37L458.661,97.37Z" style="fill:rgb(235,235,235);"/>
</svg>
