<?xml version="1.0" encoding="UTF-8" standalone="no"?>
<!DOCTYPE svg PUBLIC "-//W3C//DTD SVG 1.1//EN" "http://www.w3.org/Graphics/SVG/1.1/DTD/svg11.dtd">
<svg width="100%" height="100%" viewBox="0 0 823 823" version="1.1" xmlns="http://www.w3.org/2000/svg" xmlns:xlink="http://www.w3.org/1999/xlink" xml:space="preserve" xmlns:serif="http://www.serif.com/" style="fill-rule:evenodd;clip-rule:evenodd;stroke-linecap:round;stroke-linejoin:round;stroke-miterlimit:1.5;">
    <g transform="matrix(0.500817,0,0,0.500817,0,-6.79389)">
        <circle cx="42.45" cy="56.016" r="42.45" style="fill:none;stroke:black;stroke-width:2px;"/>
    </g>
    <g transform="matrix(0.500817,0,0,0.500817,0,78.2455)">
        <circle cx="42.45" cy="56.016" r="42.45" style="fill:none;stroke:black;stroke-width:2px;"/>
    </g>
    <g transform="matrix(0.500817,0,0,0.500817,0,163.285)">
        <circle cx="42.45" cy="56.016" r="42.45" style="fill:none;stroke:black;stroke-width:2px;"/>
    </g>
    <g transform="matrix(0.500817,0,0,0.500817,0,248.324)">
        <circle cx="42.45" cy="56.016" r="42.45" style="fill:none;stroke:black;stroke-width:2px;"/>
    </g>
    <g transform="matrix(0.500817,0,0,0.500817,0,333.364)">
        <circle cx="42.45" cy="56.016" r="42.45" style="fill:none;stroke:black;stroke-width:2px;"/>
    </g>
    <g transform="matrix(0.500817,0,0,0.500817,0,418.403)">
        <circle cx="42.45" cy="56.016" r="42.45" style="fill:none;stroke:black;stroke-width:2px;"/>
    </g>
    <g transform="matrix(0.500817,0,0,0.500817,0,503.442)">
        <circle cx="42.45" cy="56.016" r="42.45" style="fill:none;stroke:black;stroke-width:2px;"/>
    </g>
    <g transform="matrix(0.500817,0,0,0.500817,0,588.482)">
        <circle cx="42.45" cy="56.016" r="42.45" style="fill:none;stroke:black;stroke-width:2px;"/>
    </g>
    <g transform="matrix(0.500817,0,0,0.500817,0,673.521)">
        <circle cx="42.45" cy="56.016" r="42.45" style="fill:none;stroke:black;stroke-width:2px;"/>
    </g>
    <g transform="matrix(0.500817,0,0,0.500817,0,758.56)">
        <circle cx="42.45" cy="56.016" r="42.45" style="fill:none;stroke:black;stroke-width:2px;"/>
    </g>
    <g transform="matrix(0.500817,0,0,0.500817,42.5197,35.7258)">
        <circle cx="42.45" cy="56.016" r="42.45" style="fill:none;stroke:black;stroke-width:2px;"/>
    </g>
    <g transform="matrix(0.500817,0,0,0.500817,42.5197,120.765)">
        <circle cx="42.45" cy="56.016" r="42.45" style="fill:none;stroke:black;stroke-width:2px;"/>
    </g>
    <g transform="matrix(0.500817,0,0,0.500817,42.5197,205.805)">
        <circle cx="42.45" cy="56.016" r="42.45" style="fill:none;stroke:black;stroke-width:2px;"/>
    </g>
    <g transform="matrix(0.500817,0,0,0.500817,42.5197,290.844)">
        <circle cx="42.45" cy="56.016" r="42.45" style="fill:none;stroke:black;stroke-width:2px;"/>
    </g>
    <g transform="matrix(0.500817,0,0,0.500817,42.5197,375.883)">
        <circle cx="42.45" cy="56.016" r="42.45" style="fill:none;stroke:black;stroke-width:2px;"/>
    </g>
    <g transform="matrix(0.500817,0,0,0.500817,42.5197,460.923)">
        <circle cx="42.45" cy="56.016" r="42.45" style="fill:none;stroke:black;stroke-width:2px;"/>
    </g>
    <g transform="matrix(0.500817,0,0,0.500817,42.5197,545.962)">
        <circle cx="42.45" cy="56.016" r="42.45" style="fill:none;stroke:black;stroke-width:2px;"/>
    </g>
    <g transform="matrix(0.500817,0,0,0.500817,42.5197,631.001)">
        <circle cx="42.45" cy="56.016" r="42.45" style="fill:none;stroke:black;stroke-width:2px;"/>
    </g>
    <g transform="matrix(0.500817,0,0,0.500817,42.5197,716.041)">
        <circle cx="42.45" cy="56.016" r="42.45" style="fill:none;stroke:black;stroke-width:2px;"/>
    </g>
    <g transform="matrix(0.500817,0,0,0.500817,85.0394,-6.79389)">
        <circle cx="42.45" cy="56.016" r="42.45" style="fill:none;stroke:black;stroke-width:2px;"/>
    </g>
    <g transform="matrix(0.500817,0,0,0.500817,85.0394,78.2455)">
        <circle cx="42.45" cy="56.016" r="42.45" style="fill:none;stroke:black;stroke-width:2px;"/>
    </g>
    <g transform="matrix(0.500817,0,0,0.500817,85.0394,163.285)">
        <circle cx="42.45" cy="56.016" r="42.45" style="fill:none;stroke:black;stroke-width:2px;"/>
    </g>
    <g transform="matrix(0.500817,0,0,0.500817,85.0394,248.324)">
        <circle cx="42.45" cy="56.016" r="42.45" style="fill:none;stroke:black;stroke-width:2px;"/>
    </g>
    <g transform="matrix(0.500817,0,0,0.500817,85.0394,333.364)">
        <circle cx="42.45" cy="56.016" r="42.45" style="fill:none;stroke:black;stroke-width:2px;"/>
    </g>
    <g transform="matrix(0.500817,0,0,0.500817,85.0394,418.403)">
        <circle cx="42.45" cy="56.016" r="42.45" style="fill:none;stroke:black;stroke-width:2px;"/>
    </g>
    <g transform="matrix(0.500817,0,0,0.500817,85.0394,503.442)">
        <circle cx="42.45" cy="56.016" r="42.45" style="fill:none;stroke:black;stroke-width:2px;"/>
    </g>
    <g transform="matrix(0.500817,0,0,0.500817,85.0394,588.482)">
        <circle cx="42.45" cy="56.016" r="42.45" style="fill:none;stroke:black;stroke-width:2px;"/>
    </g>
    <g transform="matrix(0.500817,0,0,0.500817,85.0394,673.521)">
        <circle cx="42.45" cy="56.016" r="42.45" style="fill:none;stroke:black;stroke-width:2px;"/>
    </g>
    <g transform="matrix(0.500817,0,0,0.500817,85.0394,758.56)">
        <circle cx="42.45" cy="56.016" r="42.45" style="fill:none;stroke:black;stroke-width:2px;"/>
    </g>
    <g transform="matrix(0.500817,0,0,0.500817,127.559,35.7258)">
        <circle cx="42.45" cy="56.016" r="42.45" style="fill:none;stroke:black;stroke-width:2px;"/>
    </g>
    <g transform="matrix(0.500817,0,0,0.500817,127.559,120.765)">
        <circle cx="42.45" cy="56.016" r="42.45" style="fill:none;stroke:black;stroke-width:2px;"/>
    </g>
    <g transform="matrix(0.500817,0,0,0.500817,127.559,205.805)">
        <circle cx="42.45" cy="56.016" r="42.45" style="fill:none;stroke:black;stroke-width:2px;"/>
    </g>
    <g transform="matrix(0.500817,0,0,0.500817,127.559,290.844)">
        <circle cx="42.45" cy="56.016" r="42.45" style="fill:none;stroke:black;stroke-width:2px;"/>
    </g>
    <g transform="matrix(0.500817,0,0,0.500817,127.559,375.883)">
        <circle cx="42.45" cy="56.016" r="42.45" style="fill:none;stroke:black;stroke-width:2px;"/>
    </g>
    <g transform="matrix(0.500817,0,0,0.500817,127.559,460.923)">
        <circle cx="42.45" cy="56.016" r="42.45" style="fill:none;stroke:black;stroke-width:2px;"/>
    </g>
    <g transform="matrix(0.500817,0,0,0.500817,127.559,545.962)">
        <circle cx="42.45" cy="56.016" r="42.45" style="fill:none;stroke:black;stroke-width:2px;"/>
    </g>
    <g transform="matrix(0.500817,0,0,0.500817,127.559,631.001)">
        <circle cx="42.45" cy="56.016" r="42.45" style="fill:none;stroke:black;stroke-width:2px;"/>
    </g>
    <g transform="matrix(0.500817,0,0,0.500817,127.559,716.041)">
        <circle cx="42.45" cy="56.016" r="42.45" style="fill:none;stroke:black;stroke-width:2px;"/>
    </g>
    <g transform="matrix(0.500817,0,0,0.500817,170.079,-6.79389)">
        <circle cx="42.45" cy="56.016" r="42.45" style="fill:none;stroke:black;stroke-width:2px;"/>
    </g>
    <g transform="matrix(0.500817,0,0,0.500817,170.079,78.2455)">
        <circle cx="42.45" cy="56.016" r="42.45" style="fill:none;stroke:black;stroke-width:2px;"/>
    </g>
    <g transform="matrix(0.500817,0,0,0.500817,170.079,163.285)">
        <circle cx="42.45" cy="56.016" r="42.45" style="fill:none;stroke:black;stroke-width:2px;"/>
    </g>
    <g transform="matrix(0.500817,0,0,0.500817,170.079,248.324)">
        <circle cx="42.45" cy="56.016" r="42.45" style="fill:none;stroke:black;stroke-width:2px;"/>
    </g>
    <g transform="matrix(0.500817,0,0,0.500817,170.079,333.364)">
        <circle cx="42.45" cy="56.016" r="42.45" style="fill:none;stroke:black;stroke-width:2px;"/>
    </g>
    <g transform="matrix(0.500817,0,0,0.500817,170.079,418.403)">
        <circle cx="42.45" cy="56.016" r="42.45" style="fill:none;stroke:black;stroke-width:2px;"/>
    </g>
    <g transform="matrix(0.500817,0,0,0.500817,170.079,503.442)">
        <circle cx="42.45" cy="56.016" r="42.45" style="fill:none;stroke:black;stroke-width:2px;"/>
    </g>
    <g transform="matrix(0.500817,0,0,0.500817,170.079,588.482)">
        <circle cx="42.45" cy="56.016" r="42.45" style="fill:none;stroke:black;stroke-width:2px;"/>
    </g>
    <g transform="matrix(0.500817,0,0,0.500817,170.079,673.521)">
        <circle cx="42.45" cy="56.016" r="42.45" style="fill:none;stroke:black;stroke-width:2px;"/>
    </g>
    <g transform="matrix(0.500817,0,0,0.500817,170.079,758.56)">
        <circle cx="42.45" cy="56.016" r="42.45" style="fill:none;stroke:black;stroke-width:2px;"/>
    </g>
    <g transform="matrix(0.500817,0,0,0.500817,212.598,35.7258)">
        <circle cx="42.45" cy="56.016" r="42.45" style="fill:none;stroke:black;stroke-width:2px;"/>
    </g>
    <g transform="matrix(0.500817,0,0,0.500817,212.598,120.765)">
        <circle cx="42.45" cy="56.016" r="42.45" style="fill:none;stroke:black;stroke-width:2px;"/>
    </g>
    <g transform="matrix(0.500817,0,0,0.500817,212.598,205.805)">
        <circle cx="42.45" cy="56.016" r="42.45" style="fill:none;stroke:black;stroke-width:2px;"/>
    </g>
    <g transform="matrix(0.500817,0,0,0.500817,212.598,290.844)">
        <circle cx="42.45" cy="56.016" r="42.45" style="fill:none;stroke:black;stroke-width:2px;"/>
    </g>
    <g transform="matrix(0.500817,0,0,0.500817,212.598,375.883)">
        <circle cx="42.45" cy="56.016" r="42.45" style="fill:none;stroke:black;stroke-width:2px;"/>
    </g>
    <g transform="matrix(0.500817,0,0,0.500817,212.598,460.923)">
        <circle cx="42.45" cy="56.016" r="42.45" style="fill:none;stroke:black;stroke-width:2px;"/>
    </g>
    <g transform="matrix(0.500817,0,0,0.500817,212.598,545.962)">
        <circle cx="42.45" cy="56.016" r="42.45" style="fill:none;stroke:black;stroke-width:2px;"/>
    </g>
    <g transform="matrix(0.500817,0,0,0.500817,212.598,631.001)">
        <circle cx="42.45" cy="56.016" r="42.45" style="fill:none;stroke:black;stroke-width:2px;"/>
    </g>
    <g transform="matrix(0.500817,0,0,0.500817,212.598,716.041)">
        <circle cx="42.45" cy="56.016" r="42.45" style="fill:none;stroke:black;stroke-width:2px;"/>
    </g>
    <g transform="matrix(0.500817,0,0,0.500817,255.118,-6.79389)">
        <circle cx="42.45" cy="56.016" r="42.45" style="fill:none;stroke:black;stroke-width:2px;"/>
    </g>
    <g transform="matrix(0.500817,0,0,0.500817,255.118,78.2455)">
        <circle cx="42.45" cy="56.016" r="42.45" style="fill:none;stroke:black;stroke-width:2px;"/>
    </g>
    <g transform="matrix(0.500817,0,0,0.500817,255.118,163.285)">
        <circle cx="42.45" cy="56.016" r="42.45" style="fill:none;stroke:black;stroke-width:2px;"/>
    </g>
    <g transform="matrix(0.500817,0,0,0.500817,255.118,248.324)">
        <circle cx="42.45" cy="56.016" r="42.45" style="fill:none;stroke:black;stroke-width:2px;"/>
    </g>
    <g transform="matrix(0.500817,0,0,0.500817,255.118,333.364)">
        <circle cx="42.45" cy="56.016" r="42.45" style="fill:none;stroke:black;stroke-width:2px;"/>
    </g>
    <g transform="matrix(0.500817,0,0,0.500817,255.118,418.403)">
        <circle cx="42.45" cy="56.016" r="42.45" style="fill:none;stroke:black;stroke-width:2px;"/>
    </g>
    <g transform="matrix(0.500817,0,0,0.500817,255.118,503.442)">
        <circle cx="42.45" cy="56.016" r="42.45" style="fill:none;stroke:black;stroke-width:2px;"/>
    </g>
    <g transform="matrix(0.500817,0,0,0.500817,255.118,588.482)">
        <circle cx="42.45" cy="56.016" r="42.45" style="fill:none;stroke:black;stroke-width:2px;"/>
    </g>
    <g transform="matrix(0.500817,0,0,0.500817,255.118,673.521)">
        <circle cx="42.45" cy="56.016" r="42.45" style="fill:none;stroke:black;stroke-width:2px;"/>
    </g>
    <g transform="matrix(0.500817,0,0,0.500817,255.118,758.56)">
        <circle cx="42.45" cy="56.016" r="42.45" style="fill:none;stroke:black;stroke-width:2px;"/>
    </g>
    <g transform="matrix(0.500817,0,0,0.500817,297.638,35.7258)">
        <circle cx="42.45" cy="56.016" r="42.45" style="fill:none;stroke:black;stroke-width:2px;"/>
    </g>
    <g transform="matrix(0.500817,0,0,0.500817,297.638,120.765)">
        <circle cx="42.45" cy="56.016" r="42.45" style="fill:none;stroke:black;stroke-width:2px;"/>
    </g>
    <g transform="matrix(0.500817,0,0,0.500817,297.638,205.805)">
        <circle cx="42.45" cy="56.016" r="42.45" style="fill:none;stroke:black;stroke-width:2px;"/>
    </g>
    <g transform="matrix(0.500817,0,0,0.500817,297.638,290.844)">
        <circle cx="42.45" cy="56.016" r="42.45" style="fill:none;stroke:black;stroke-width:2px;"/>
    </g>
    <g transform="matrix(0.500817,0,0,0.500817,297.638,375.883)">
        <circle cx="42.45" cy="56.016" r="42.45" style="fill:none;stroke:black;stroke-width:2px;"/>
    </g>
    <g transform="matrix(0.500817,0,0,0.500817,297.638,460.923)">
        <circle cx="42.45" cy="56.016" r="42.45" style="fill:none;stroke:black;stroke-width:2px;"/>
    </g>
    <g transform="matrix(0.500817,0,0,0.500817,297.638,545.962)">
        <circle cx="42.45" cy="56.016" r="42.45" style="fill:none;stroke:black;stroke-width:2px;"/>
    </g>
    <g transform="matrix(0.500817,0,0,0.500817,297.638,631.001)">
        <circle cx="42.45" cy="56.016" r="42.45" style="fill:none;stroke:black;stroke-width:2px;"/>
    </g>
    <g transform="matrix(0.500817,0,0,0.500817,297.638,716.041)">
        <circle cx="42.45" cy="56.016" r="42.45" style="fill:none;stroke:black;stroke-width:2px;"/>
    </g>
    <g transform="matrix(0.500817,0,0,0.500817,340.157,-6.79389)">
        <circle cx="42.45" cy="56.016" r="42.45" style="fill:none;stroke:black;stroke-width:2px;"/>
    </g>
    <g transform="matrix(0.500817,0,0,0.500817,340.157,78.2455)">
        <circle cx="42.45" cy="56.016" r="42.45" style="fill:none;stroke:black;stroke-width:2px;"/>
    </g>
    <g transform="matrix(0.500817,0,0,0.500817,340.157,163.285)">
        <circle cx="42.45" cy="56.016" r="42.45" style="fill:none;stroke:black;stroke-width:2px;"/>
    </g>
    <g transform="matrix(0.500817,0,0,0.500817,340.157,248.324)">
        <circle cx="42.45" cy="56.016" r="42.45" style="fill:none;stroke:black;stroke-width:2px;"/>
    </g>
    <g transform="matrix(0.500817,0,0,0.500817,340.157,333.364)">
        <circle cx="42.45" cy="56.016" r="42.45" style="fill:none;stroke:black;stroke-width:2px;"/>
    </g>
    <g transform="matrix(0.500817,0,0,0.500817,340.157,418.403)">
        <circle cx="42.45" cy="56.016" r="42.45" style="fill:none;stroke:black;stroke-width:2px;"/>
    </g>
    <g transform="matrix(0.500817,0,0,0.500817,340.157,503.442)">
        <circle cx="42.45" cy="56.016" r="42.45" style="fill:none;stroke:black;stroke-width:2px;"/>
    </g>
    <g transform="matrix(0.500817,0,0,0.500817,340.157,588.482)">
        <circle cx="42.45" cy="56.016" r="42.45" style="fill:none;stroke:black;stroke-width:2px;"/>
    </g>
    <g transform="matrix(0.500817,0,0,0.500817,340.157,673.521)">
        <circle cx="42.45" cy="56.016" r="42.45" style="fill:none;stroke:black;stroke-width:2px;"/>
    </g>
    <g transform="matrix(0.500817,0,0,0.500817,340.157,758.56)">
        <circle cx="42.45" cy="56.016" r="42.45" style="fill:none;stroke:black;stroke-width:2px;"/>
    </g>
    <g transform="matrix(0.500817,0,0,0.500817,382.677,35.7258)">
        <circle cx="42.45" cy="56.016" r="42.45" style="fill:none;stroke:black;stroke-width:2px;"/>
    </g>
    <g transform="matrix(0.500817,0,0,0.500817,382.677,120.765)">
        <circle cx="42.45" cy="56.016" r="42.45" style="fill:none;stroke:black;stroke-width:2px;"/>
    </g>
    <g transform="matrix(0.500817,0,0,0.500817,382.677,205.805)">
        <circle cx="42.45" cy="56.016" r="42.45" style="fill:none;stroke:black;stroke-width:2px;"/>
    </g>
    <g transform="matrix(0.500817,0,0,0.500817,382.677,290.844)">
        <circle cx="42.45" cy="56.016" r="42.45" style="fill:none;stroke:black;stroke-width:2px;"/>
    </g>
    <g transform="matrix(0.500817,0,0,0.500817,382.677,375.883)">
        <circle cx="42.45" cy="56.016" r="42.45" style="fill:none;stroke:black;stroke-width:2px;"/>
    </g>
    <g transform="matrix(0.500817,0,0,0.500817,382.677,460.923)">
        <circle cx="42.45" cy="56.016" r="42.45" style="fill:none;stroke:black;stroke-width:2px;"/>
    </g>
    <g transform="matrix(0.500817,0,0,0.500817,382.677,545.962)">
        <circle cx="42.45" cy="56.016" r="42.45" style="fill:none;stroke:black;stroke-width:2px;"/>
    </g>
    <g transform="matrix(0.500817,0,0,0.500817,382.677,631.001)">
        <circle cx="42.45" cy="56.016" r="42.45" style="fill:none;stroke:black;stroke-width:2px;"/>
    </g>
    <g transform="matrix(0.500817,0,0,0.500817,382.677,716.041)">
        <circle cx="42.45" cy="56.016" r="42.45" style="fill:none;stroke:black;stroke-width:2px;"/>
    </g>
    <g transform="matrix(0.500817,0,0,0.500817,425.197,-6.79389)">
        <circle cx="42.45" cy="56.016" r="42.45" style="fill:none;stroke:black;stroke-width:2px;"/>
    </g>
    <g transform="matrix(0.500817,0,0,0.500817,425.197,78.2455)">
        <circle cx="42.45" cy="56.016" r="42.45" style="fill:none;stroke:black;stroke-width:2px;"/>
    </g>
    <g transform="matrix(0.500817,0,0,0.500817,425.197,163.285)">
        <circle cx="42.45" cy="56.016" r="42.45" style="fill:none;stroke:black;stroke-width:2px;"/>
    </g>
    <g transform="matrix(0.500817,0,0,0.500817,425.197,248.324)">
        <circle cx="42.45" cy="56.016" r="42.45" style="fill:none;stroke:black;stroke-width:2px;"/>
    </g>
    <g transform="matrix(0.500817,0,0,0.500817,425.197,333.364)">
        <circle cx="42.45" cy="56.016" r="42.45" style="fill:none;stroke:black;stroke-width:2px;"/>
    </g>
    <g transform="matrix(0.500817,0,0,0.500817,425.197,418.403)">
        <circle cx="42.45" cy="56.016" r="42.45" style="fill:none;stroke:black;stroke-width:2px;"/>
    </g>
    <g transform="matrix(0.500817,0,0,0.500817,425.197,503.442)">
        <circle cx="42.45" cy="56.016" r="42.45" style="fill:none;stroke:black;stroke-width:2px;"/>
    </g>
    <g transform="matrix(0.500817,0,0,0.500817,425.197,588.482)">
        <circle cx="42.45" cy="56.016" r="42.45" style="fill:none;stroke:black;stroke-width:2px;"/>
    </g>
    <g transform="matrix(0.500817,0,0,0.500817,425.197,673.521)">
        <circle cx="42.45" cy="56.016" r="42.45" style="fill:none;stroke:black;stroke-width:2px;"/>
    </g>
    <g transform="matrix(0.500817,0,0,0.500817,425.197,758.56)">
        <circle cx="42.45" cy="56.016" r="42.45" style="fill:none;stroke:black;stroke-width:2px;"/>
    </g>
    <g transform="matrix(0.500817,0,0,0.500817,467.717,35.7258)">
        <circle cx="42.45" cy="56.016" r="42.45" style="fill:none;stroke:black;stroke-width:2px;"/>
    </g>
    <g transform="matrix(0.500817,0,0,0.500817,467.717,120.765)">
        <circle cx="42.45" cy="56.016" r="42.45" style="fill:none;stroke:black;stroke-width:2px;"/>
    </g>
    <g transform="matrix(0.500817,0,0,0.500817,467.717,205.805)">
        <circle cx="42.45" cy="56.016" r="42.45" style="fill:none;stroke:black;stroke-width:2px;"/>
    </g>
    <g transform="matrix(0.500817,0,0,0.500817,467.717,290.844)">
        <circle cx="42.45" cy="56.016" r="42.45" style="fill:none;stroke:black;stroke-width:2px;"/>
    </g>
    <g transform="matrix(0.500817,0,0,0.500817,467.717,375.883)">
        <circle cx="42.45" cy="56.016" r="42.45" style="fill:none;stroke:black;stroke-width:2px;"/>
    </g>
    <g transform="matrix(0.500817,0,0,0.500817,467.717,460.923)">
        <circle cx="42.45" cy="56.016" r="42.45" style="fill:none;stroke:black;stroke-width:2px;"/>
    </g>
    <g transform="matrix(0.500817,0,0,0.500817,467.717,545.962)">
        <circle cx="42.45" cy="56.016" r="42.45" style="fill:none;stroke:black;stroke-width:2px;"/>
    </g>
    <g transform="matrix(0.500817,0,0,0.500817,467.717,631.001)">
        <circle cx="42.45" cy="56.016" r="42.45" style="fill:none;stroke:black;stroke-width:2px;"/>
    </g>
    <g transform="matrix(0.500817,0,0,0.500817,467.717,716.041)">
        <circle cx="42.45" cy="56.016" r="42.45" style="fill:none;stroke:black;stroke-width:2px;"/>
    </g>
    <g transform="matrix(0.500817,0,0,0.500817,510.236,-6.79389)">
        <circle cx="42.45" cy="56.016" r="42.45" style="fill:none;stroke:black;stroke-width:2px;"/>
    </g>
    <g transform="matrix(0.500817,0,0,0.500817,510.236,78.2455)">
        <circle cx="42.45" cy="56.016" r="42.45" style="fill:none;stroke:black;stroke-width:2px;"/>
    </g>
    <g transform="matrix(0.500817,0,0,0.500817,510.236,163.285)">
        <circle cx="42.45" cy="56.016" r="42.45" style="fill:none;stroke:black;stroke-width:2px;"/>
    </g>
    <g transform="matrix(0.500817,0,0,0.500817,510.236,248.324)">
        <circle cx="42.45" cy="56.016" r="42.45" style="fill:none;stroke:black;stroke-width:2px;"/>
    </g>
    <g transform="matrix(0.500817,0,0,0.500817,510.236,333.364)">
        <circle cx="42.45" cy="56.016" r="42.45" style="fill:none;stroke:black;stroke-width:2px;"/>
    </g>
    <g transform="matrix(0.500817,0,0,0.500817,510.236,418.403)">
        <circle cx="42.45" cy="56.016" r="42.45" style="fill:none;stroke:black;stroke-width:2px;"/>
    </g>
    <g transform="matrix(0.500817,0,0,0.500817,510.236,503.442)">
        <circle cx="42.45" cy="56.016" r="42.45" style="fill:none;stroke:black;stroke-width:2px;"/>
    </g>
    <g transform="matrix(0.500817,0,0,0.500817,510.236,588.482)">
        <circle cx="42.45" cy="56.016" r="42.45" style="fill:none;stroke:black;stroke-width:2px;"/>
    </g>
    <g transform="matrix(0.500817,0,0,0.500817,510.236,673.521)">
        <circle cx="42.45" cy="56.016" r="42.45" style="fill:none;stroke:black;stroke-width:2px;"/>
    </g>
    <g transform="matrix(0.500817,0,0,0.500817,510.236,758.56)">
        <circle cx="42.45" cy="56.016" r="42.45" style="fill:none;stroke:black;stroke-width:2px;"/>
    </g>
    <g transform="matrix(0.500817,0,0,0.500817,552.756,35.7258)">
        <circle cx="42.45" cy="56.016" r="42.45" style="fill:none;stroke:black;stroke-width:2px;"/>
    </g>
    <g transform="matrix(0.500817,0,0,0.500817,552.756,120.765)">
        <circle cx="42.45" cy="56.016" r="42.45" style="fill:none;stroke:black;stroke-width:2px;"/>
    </g>
    <g transform="matrix(0.500817,0,0,0.500817,552.756,205.805)">
        <circle cx="42.45" cy="56.016" r="42.45" style="fill:none;stroke:black;stroke-width:2px;"/>
    </g>
    <g transform="matrix(0.500817,0,0,0.500817,552.756,290.844)">
        <circle cx="42.45" cy="56.016" r="42.45" style="fill:none;stroke:black;stroke-width:2px;"/>
    </g>
    <g transform="matrix(0.500817,0,0,0.500817,552.756,375.883)">
        <circle cx="42.45" cy="56.016" r="42.45" style="fill:none;stroke:black;stroke-width:2px;"/>
    </g>
    <g transform="matrix(0.500817,0,0,0.500817,552.756,460.923)">
        <circle cx="42.45" cy="56.016" r="42.45" style="fill:none;stroke:black;stroke-width:2px;"/>
    </g>
    <g transform="matrix(0.500817,0,0,0.500817,552.756,545.962)">
        <circle cx="42.45" cy="56.016" r="42.45" style="fill:none;stroke:black;stroke-width:2px;"/>
    </g>
    <g transform="matrix(0.500817,0,0,0.500817,552.756,631.001)">
        <circle cx="42.45" cy="56.016" r="42.45" style="fill:none;stroke:black;stroke-width:2px;"/>
    </g>
    <g transform="matrix(0.500817,0,0,0.500817,552.756,716.041)">
        <circle cx="42.45" cy="56.016" r="42.45" style="fill:none;stroke:black;stroke-width:2px;"/>
    </g>
    <g transform="matrix(0.500817,0,0,0.500817,595.276,-6.79389)">
        <circle cx="42.45" cy="56.016" r="42.45" style="fill:none;stroke:black;stroke-width:2px;"/>
    </g>
    <g transform="matrix(0.500817,0,0,0.500817,595.276,78.2455)">
        <circle cx="42.45" cy="56.016" r="42.45" style="fill:none;stroke:black;stroke-width:2px;"/>
    </g>
    <g transform="matrix(0.500817,0,0,0.500817,595.276,163.285)">
        <circle cx="42.45" cy="56.016" r="42.45" style="fill:none;stroke:black;stroke-width:2px;"/>
    </g>
    <g transform="matrix(0.500817,0,0,0.500817,595.276,248.324)">
        <circle cx="42.45" cy="56.016" r="42.45" style="fill:none;stroke:black;stroke-width:2px;"/>
    </g>
    <g transform="matrix(0.500817,0,0,0.500817,595.276,333.364)">
        <circle cx="42.45" cy="56.016" r="42.45" style="fill:none;stroke:black;stroke-width:2px;"/>
    </g>
    <g transform="matrix(0.500817,0,0,0.500817,595.276,418.403)">
        <circle cx="42.45" cy="56.016" r="42.45" style="fill:none;stroke:black;stroke-width:2px;"/>
    </g>
    <g transform="matrix(0.500817,0,0,0.500817,595.276,503.442)">
        <circle cx="42.45" cy="56.016" r="42.45" style="fill:none;stroke:black;stroke-width:2px;"/>
    </g>
    <g transform="matrix(0.500817,0,0,0.500817,595.276,588.482)">
        <circle cx="42.45" cy="56.016" r="42.45" style="fill:none;stroke:black;stroke-width:2px;"/>
    </g>
    <g transform="matrix(0.500817,0,0,0.500817,595.276,673.521)">
        <circle cx="42.45" cy="56.016" r="42.45" style="fill:none;stroke:black;stroke-width:2px;"/>
    </g>
    <g transform="matrix(0.500817,0,0,0.500817,595.276,758.56)">
        <circle cx="42.45" cy="56.016" r="42.45" style="fill:none;stroke:black;stroke-width:2px;"/>
    </g>
    <g transform="matrix(0.500817,0,0,0.500817,637.795,35.7258)">
        <circle cx="42.45" cy="56.016" r="42.45" style="fill:none;stroke:black;stroke-width:2px;"/>
    </g>
    <g transform="matrix(0.500817,0,0,0.500817,637.795,120.765)">
        <circle cx="42.45" cy="56.016" r="42.45" style="fill:none;stroke:black;stroke-width:2px;"/>
    </g>
    <g transform="matrix(0.500817,0,0,0.500817,637.795,205.805)">
        <circle cx="42.45" cy="56.016" r="42.45" style="fill:none;stroke:black;stroke-width:2px;"/>
    </g>
    <g transform="matrix(0.500817,0,0,0.500817,637.795,290.844)">
        <circle cx="42.45" cy="56.016" r="42.45" style="fill:none;stroke:black;stroke-width:2px;"/>
    </g>
    <g transform="matrix(0.500817,0,0,0.500817,637.795,375.883)">
        <circle cx="42.45" cy="56.016" r="42.45" style="fill:none;stroke:black;stroke-width:2px;"/>
    </g>
    <g transform="matrix(0.500817,0,0,0.500817,637.795,460.923)">
        <circle cx="42.45" cy="56.016" r="42.45" style="fill:none;stroke:black;stroke-width:2px;"/>
    </g>
    <g transform="matrix(0.500817,0,0,0.500817,637.795,545.962)">
        <circle cx="42.45" cy="56.016" r="42.45" style="fill:none;stroke:black;stroke-width:2px;"/>
    </g>
    <g transform="matrix(0.500817,0,0,0.500817,637.795,631.001)">
        <circle cx="42.45" cy="56.016" r="42.45" style="fill:none;stroke:black;stroke-width:2px;"/>
    </g>
    <g transform="matrix(0.500817,0,0,0.500817,637.795,716.041)">
        <circle cx="42.45" cy="56.016" r="42.45" style="fill:none;stroke:black;stroke-width:2px;"/>
    </g>
    <g transform="matrix(0.500817,0,0,0.500817,680.315,-6.79389)">
        <circle cx="42.45" cy="56.016" r="42.45" style="fill:none;stroke:black;stroke-width:2px;"/>
    </g>
    <g transform="matrix(0.500817,0,0,0.500817,680.315,78.2455)">
        <circle cx="42.45" cy="56.016" r="42.45" style="fill:none;stroke:black;stroke-width:2px;"/>
    </g>
    <g transform="matrix(0.500817,0,0,0.500817,680.315,163.285)">
        <circle cx="42.45" cy="56.016" r="42.45" style="fill:none;stroke:black;stroke-width:2px;"/>
    </g>
    <g transform="matrix(0.500817,0,0,0.500817,680.315,248.324)">
        <circle cx="42.45" cy="56.016" r="42.45" style="fill:none;stroke:black;stroke-width:2px;"/>
    </g>
    <g transform="matrix(0.500817,0,0,0.500817,680.315,333.364)">
        <circle cx="42.45" cy="56.016" r="42.45" style="fill:none;stroke:black;stroke-width:2px;"/>
    </g>
    <g transform="matrix(0.500817,0,0,0.500817,680.315,418.403)">
        <circle cx="42.45" cy="56.016" r="42.45" style="fill:none;stroke:black;stroke-width:2px;"/>
    </g>
    <g transform="matrix(0.500817,0,0,0.500817,680.315,503.442)">
        <circle cx="42.45" cy="56.016" r="42.45" style="fill:none;stroke:black;stroke-width:2px;"/>
    </g>
    <g transform="matrix(0.500817,0,0,0.500817,680.315,588.482)">
        <circle cx="42.45" cy="56.016" r="42.45" style="fill:none;stroke:black;stroke-width:2px;"/>
    </g>
    <g transform="matrix(0.500817,0,0,0.500817,680.315,673.521)">
        <circle cx="42.45" cy="56.016" r="42.45" style="fill:none;stroke:black;stroke-width:2px;"/>
    </g>
    <g transform="matrix(0.500817,0,0,0.500817,680.315,758.56)">
        <circle cx="42.45" cy="56.016" r="42.45" style="fill:none;stroke:black;stroke-width:2px;"/>
    </g>
    <g transform="matrix(0.500817,0,0,0.500817,722.835,35.7258)">
        <circle cx="42.45" cy="56.016" r="42.45" style="fill:none;stroke:black;stroke-width:2px;"/>
    </g>
    <g transform="matrix(0.500817,0,0,0.500817,722.835,120.765)">
        <circle cx="42.45" cy="56.016" r="42.45" style="fill:none;stroke:black;stroke-width:2px;"/>
    </g>
    <g transform="matrix(0.500817,0,0,0.500817,722.835,205.805)">
        <circle cx="42.45" cy="56.016" r="42.45" style="fill:none;stroke:black;stroke-width:2px;"/>
    </g>
    <g transform="matrix(0.500817,0,0,0.500817,722.835,290.844)">
        <circle cx="42.45" cy="56.016" r="42.45" style="fill:none;stroke:black;stroke-width:2px;"/>
    </g>
    <g transform="matrix(0.500817,0,0,0.500817,722.835,375.883)">
        <circle cx="42.45" cy="56.016" r="42.45" style="fill:none;stroke:black;stroke-width:2px;"/>
    </g>
    <g transform="matrix(0.500817,0,0,0.500817,722.835,460.923)">
        <circle cx="42.45" cy="56.016" r="42.45" style="fill:none;stroke:black;stroke-width:2px;"/>
    </g>
    <g transform="matrix(0.500817,0,0,0.500817,722.835,545.962)">
        <circle cx="42.45" cy="56.016" r="42.45" style="fill:none;stroke:black;stroke-width:2px;"/>
    </g>
    <g transform="matrix(0.500817,0,0,0.500817,722.835,631.001)">
        <circle cx="42.45" cy="56.016" r="42.45" style="fill:none;stroke:black;stroke-width:2px;"/>
    </g>
    <g transform="matrix(0.500817,0,0,0.500817,722.835,716.041)">
        <circle cx="42.45" cy="56.016" r="42.45" style="fill:none;stroke:black;stroke-width:2px;"/>
    </g>
    <g transform="matrix(0.500817,0,0,0.500817,765.354,-6.79389)">
        <circle cx="42.45" cy="56.016" r="42.45" style="fill:none;stroke:black;stroke-width:2px;"/>
    </g>
    <g transform="matrix(0.500817,0,0,0.500817,765.354,78.2455)">
        <circle cx="42.45" cy="56.016" r="42.45" style="fill:none;stroke:black;stroke-width:2px;"/>
    </g>
    <g transform="matrix(0.500817,0,0,0.500817,765.354,163.285)">
        <circle cx="42.45" cy="56.016" r="42.45" style="fill:none;stroke:black;stroke-width:2px;"/>
    </g>
    <g transform="matrix(0.500817,0,0,0.500817,765.354,248.324)">
        <circle cx="42.45" cy="56.016" r="42.45" style="fill:none;stroke:black;stroke-width:2px;"/>
    </g>
    <g transform="matrix(0.500817,0,0,0.500817,765.354,333.364)">
        <circle cx="42.45" cy="56.016" r="42.45" style="fill:none;stroke:black;stroke-width:2px;"/>
    </g>
    <g transform="matrix(0.500817,0,0,0.500817,765.354,418.403)">
        <circle cx="42.45" cy="56.016" r="42.45" style="fill:none;stroke:black;stroke-width:2px;"/>
    </g>
    <g transform="matrix(0.500817,0,0,0.500817,765.354,503.442)">
        <circle cx="42.45" cy="56.016" r="42.45" style="fill:none;stroke:black;stroke-width:2px;"/>
    </g>
    <g transform="matrix(0.500817,0,0,0.500817,765.354,588.482)">
        <circle cx="42.45" cy="56.016" r="42.45" style="fill:none;stroke:black;stroke-width:2px;"/>
    </g>
    <g transform="matrix(0.500817,0,0,0.500817,765.354,673.521)">
        <circle cx="42.45" cy="56.016" r="42.45" style="fill:none;stroke:black;stroke-width:2px;"/>
    </g>
    <g transform="matrix(0.500817,0,0,0.500817,765.354,758.56)">
        <circle cx="42.45" cy="56.016" r="42.45" style="fill:none;stroke:black;stroke-width:2px;"/>
    </g>
</svg>
